<svg xmlns="http://www.w3.org/2000/svg" width="20" height="14" viewBox="0 0 20 14">
    <g fill="none" fill-rule="evenodd">
        <g fill="#FFF" fill-rule="nonzero">
            <g>
                <path d="M2.371 13.09V7.53h5.44V5.542h-5.44V1.988h6.015V0H0v13.09h2.371zm12.892.173c2.314 0 4.046-1.834 4.046-5.068 0-3.273-1.783-5.05-4.053-5.05-1.732 0-2.454 1.042-2.806 1.751h-.096V0H10.04v13.09h2.276v-1.546h.134c.365.716 1.125 1.72 2.813 1.72zm-.646-1.898c-1.476 0-2.307-1.278-2.307-3.183 0-1.905.818-3.139 2.307-3.139 1.54 0 2.333 1.31 2.333 3.139 0 1.84-.805 3.183-2.333 3.183z" transform="translate(-1000 -81) translate(1000 81)"/>
            </g>
        </g>
    </g>
</svg>
