<svg xmlns="http://www.w3.org/2000/svg" width="1440" height="391" viewBox="0 0 1440 391">
    <g fill="none" fill-rule="evenodd">
        <g>
            <g>
                <path fill="#FFFE1C" d="M961.4 159v106.001l52.8-.001v-53h52.8v53l-52.8 53H908.6V212l52.8-53zM908.6 0l52.8 53v53l-52.8 53h-52.8v106H803V53l52.8-53h52.8zm-52.8 52.999V106h52.8V53l-52.8-.001z" transform="translate(0 -4654) translate(-174 4654)"/>
                <path fill="#FFF" d="M771 126v212l-52.8 53h-52.8l-52.8-53v-53l52.8-53h52.8V126H771zm-507 0v212l-52.8 53h-52.8l-52.8-53v-53l52.8-53h52.8V126H264zm1014 0v212l-52.8 53h-52.8l-52.8-53v-53l52.8-53h52.8V126h52.8zm509 0v212l-52.8 53h-52.8l-52.8-53v-53l52.8-53h52.8V126h52.8zM718.2 285h-52.8v53l52.8.001V285zm-507 0h-52.8v53l52.8.001V285zm1014 0h-52.8v53l52.8.001V285zm509 0h-52.8v53l52.8.001V285zM454.4 159v106.001l52.8-.001v-53H560v53l-52.8 53H401.6V212l52.8-53zm1014 0v106.001l52.8-.001v-53h52.8v53l-52.8 53h-105.6V212l52.8-53zM401.6 0l52.8 53v53l-52.8 53h-52.8v106H296V53l52.8-53h52.8zm1014 0l52.8 53v53l-52.8 53h-52.8v106H1310V53l52.8-53h52.8zM665.4 73v106l-52.8 53V125.999l-52.8.001v53H507v-53l52.8-53h105.6zm-507 0v106l-52.8 53V125.999L52.8 126v53H0v-53l52.8-53h105.6zm1014 0v106l-52.8 53V125.999l-52.8.001v53H1014v-53l52.8-53h105.6zm509 0v106l-52.8 53V125.999l-52.8.001v53H1523v-53l52.8-53h105.6zM348.8 52.999V106h52.8V53l-52.8-.001zm1014 0V106h52.8V53l-52.8-.001z" transform="translate(0 -4654) translate(-174 4654)"/>
            </g>
        </g>
    </g>
</svg>
